<?xml version="1.0" standalone="no"?>
<!DOCTYPE svg PUBLIC "-//W3C//DTD SVG 20010904//EN"
 "http://www.w3.org/TR/2001/REC-SVG-20010904/DTD/svg10.dtd">
<svg version="1.0" xmlns="http://www.w3.org/2000/svg"
 width="1080.000000pt" height="1080.000000pt" viewBox="0 0 1080.000000 1080.000000"
 preserveAspectRatio="xMidYMid meet">

<g transform="translate(0.000000,1080.000000) scale(0.100000,-0.100000)"
fill="#000000" stroke="none">
<path d="M4090 6410 l0 -400 303 2 302 3 3 398 2 397 -305 0 -305 0 0 -400z
m595 0 l0 -385 -287 -3 -288 -2 0 390 0 390 288 -2 287 -3 0 -385z"/>
<path d="M4280 6615 c0 -33 2 -35 35 -35 l35 0 0 -205 0 -205 40 0 40 0 0 205
0 205 40 0 c39 0 40 1 40 35 l0 35 -115 0 -115 0 0 -35z"/>
<path d="M5090 6410 l0 -400 305 0 305 0 0 400 0 400 -305 0 -305 0 0 -400z
m595 0 l0 -385 -285 0 -285 0 -3 375 c-1 206 0 381 3 388 3 10 66 12 287 10
l283 -3 0 -385z"/>
<path d="M5280 6410 l0 -240 40 0 39 0 3 108 3 107 35 0 35 0 3 -107 3 -108
39 0 40 0 0 240 0 240 -40 0 -40 0 0 -95 0 -95 -40 0 -40 0 0 95 0 95 -40 0
-40 0 0 -240z"/>
<path d="M6100 6410 l0 -400 303 2 302 3 3 398 2 397 -305 0 -305 0 0 -400z
m595 0 l0 -385 -287 -3 -288 -2 0 390 0 390 288 -2 287 -3 0 -385z"/>
<path d="M6310 6410 l0 -240 106 0 105 0 -3 33 c-3 32 -3 32 -65 35 l-63 3 0
74 0 75 50 0 50 0 0 35 0 35 -50 0 -50 0 0 60 0 60 66 0 65 0 -3 33 -3 32
-102 3 -103 3 0 -241z"/>
<path d="M1570 5400 l0 -400 305 0 305 0 0 400 0 400 -305 0 -305 0 0 -400z
m600 -5 l0 -385 -287 2 -288 3 -3 383 -2 382 290 0 290 0 0 -385z"/>
<path d="M1841 5642 c-13 -4 -34 -20 -45 -35 -19 -26 -21 -44 -24 -200 -3
-166 -2 -173 20 -207 28 -41 73 -57 125 -44 51 13 76 51 81 124 l4 60 -40 0
-41 0 -3 -52 c-3 -47 -6 -53 -27 -56 -13 -2 -28 2 -32 10 -5 7 -9 78 -9 158 0
80 4 151 9 158 4 8 19 12 32 10 20 -2 24 -9 27 -45 3 -43 3 -43 43 -43 38 0
39 1 39 35 0 41 -20 94 -41 112 -19 16 -87 24 -118 15z"/>
<path d="M2580 5400 l0 -400 305 0 305 0 0 400 0 400 -305 0 -305 0 0 -400z
m600 -5 l0 -385 -290 0 -290 0 0 385 0 385 290 0 290 0 0 -385z"/>
<path d="M2833 5636 c-55 -25 -63 -55 -63 -239 0 -154 1 -166 23 -198 29 -43
79 -58 137 -40 64 19 70 41 70 245 l0 176 -27 30 c-34 36 -92 47 -140 26z m82
-236 l0 -165 -24 -3 c-13 -2 -28 2 -32 10 -10 15 -12 288 -3 313 4 10 16 15
33 13 l26 -3 0 -165z"/>
<path d="M3590 5400 l0 -400 300 0 300 0 0 400 0 400 -300 0 -300 0 0 -400z
m590 -5 l0 -385 -287 2 -288 3 -3 383 -2 382 290 0 290 0 0 -385z"/>
<path d="M3842 5635 c-55 -24 -64 -62 -60 -251 3 -147 5 -165 24 -191 26 -35
73 -49 121 -37 51 13 76 51 81 124 l4 60 -40 0 -41 0 -3 -52 c-3 -47 -6 -53
-27 -56 -13 -2 -28 2 -32 10 -5 7 -9 78 -9 158 0 80 4 151 9 158 4 8 19 12 32
10 20 -2 24 -9 27 -45 3 -43 3 -43 43 -43 38 0 39 1 39 35 0 41 -20 94 -41
112 -25 20 -91 25 -127 8z"/>
<path d="M4590 5400 l0 -400 305 0 305 0 0 400 0 400 -305 0 -305 0 0 -400z
m600 -5 l0 -385 -290 0 -290 0 0 385 0 385 290 0 290 0 0 -385z"/>
<path d="M4780 5400 l0 -240 40 0 40 0 0 78 c1 46 6 87 15 102 16 29 14 33 49
-90 l24 -85 41 -3 c22 -2 41 0 41 5 0 4 -20 73 -45 153 l-44 144 45 82 c24 44
44 84 44 88 0 3 -17 6 -39 6 l-38 0 -46 -92 -45 -93 -1 93 -1 92 -40 0 -40 0
0 -240z"/>
<path d="M5600 5400 l0 -400 300 0 300 0 0 400 0 400 -300 0 -300 0 0 -400z
m590 -5 l0 -385 -287 2 -288 3 -3 383 -2 382 290 0 290 0 0 -385z"/>
<path d="M5787 5633 c-4 -3 -7 -19 -7 -35 0 -26 3 -28 40 -28 l40 0 0 -205 0
-205 40 0 40 0 0 205 0 205 40 0 c39 0 40 1 40 35 l0 35 -113 0 c-63 0 -117
-3 -120 -7z"/>
<path d="M6600 5400 l0 -400 305 0 305 0 0 400 0 400 -305 0 -305 0 0 -400z
m600 -5 l0 -385 -290 0 -290 0 0 385 0 385 290 0 290 0 0 -385z"/>
<path d="M6817 5413 c-21 -126 -37 -234 -37 -240 0 -8 13 -13 34 -13 35 0 46
15 46 68 0 19 5 22 45 22 40 0 45 -3 45 -22 0 -55 10 -68 51 -68 36 0 39 2 34
23 -3 12 -18 108 -35 212 -44 274 -33 245 -94 245 l-52 0 -37 -227z m112 -60
c1 -29 -2 -33 -24 -33 -30 0 -32 21 -13 133 l12 72 12 -70 c7 -38 13 -85 13
-102z"/>
<path d="M7610 5400 l0 -400 300 0 300 0 0 400 0 400 -300 0 -300 0 0 -400z
m590 -5 l0 -385 -287 2 -288 3 -3 383 -2 382 290 0 290 0 0 -385z"/>
<path d="M7870 5400 l0 -240 40 0 40 0 0 240 0 240 -40 0 -40 0 0 -240z"/>
<path d="M8610 5400 l0 -400 305 0 305 0 0 400 0 400 -305 0 -305 0 0 -400z
m600 -5 l0 -385 -290 0 -290 0 0 385 0 385 290 0 290 0 0 -385z"/>
<path d="M8830 5400 l0 -240 100 0 100 0 0 35 0 34 -62 3 -63 3 -3 203 -2 202
-35 0 -35 0 0 -240z"/>
<path d="M4590 4390 l0 -400 305 0 305 0 0 400 0 400 -305 0 -305 0 0 -400z
m600 -5 l0 -385 -290 0 -290 0 0 385 0 385 290 0 290 0 0 -385z"/>
<path d="M4788 4624 c-5 -4 -8 -112 -8 -241 l0 -233 86 0 c81 0 87 1 115 29
l29 29 0 181 c0 176 -1 181 -24 208 -22 26 -31 28 -108 31 -45 2 -86 0 -90 -4z
m132 -74 c12 -7 16 -38 18 -149 4 -158 -2 -181 -48 -181 l-30 0 0 170 c0 170
0 170 23 170 12 0 29 -5 37 -10z"/>
<path d="M5600 4390 l0 -400 300 0 300 0 0 400 0 400 -300 0 -300 0 0 -400z
m590 -5 l0 -385 -290 0 -290 0 0 385 0 385 290 0 290 0 0 -385z"/>
<path d="M5790 4390 l0 -240 89 0 c82 0 90 2 114 26 15 14 29 42 33 61 9 50
-3 125 -25 147 -19 18 -19 19 0 50 37 61 16 166 -37 186 -14 6 -59 10 -100 10
l-74 0 0 -240z m138 158 c13 -13 16 -76 4 -94 -4 -7 -18 -14 -32 -15 -24 -4
-25 -2 -28 59 -3 59 -2 62 21 62 12 0 28 -5 35 -12z m16 -231 c14 -56 -1 -91
-42 -95 l-32 -3 0 71 0 71 33 -3 c28 -3 33 -8 41 -41z"/>
</g>
</svg>
